{
  "accessors": [
    {
      "bufferView": 2,
      "componentType": 5126,
      "count": 3128,
      "max": [
        11.552083969116211,
        15.257104873657227,
        92.83592224121094
      ],
      "min": [
        -10.811506271362305,
        -1.255881905555725,
        58.39448547363281
      ],
      "type": "VEC3"
    },
    {
      "bufferView": 2,
      "byteOffset": 37536,
      "componentType": 5126,
      "count": 3128,
      "max": [
        0.9999998211860657,
        0.9998784065246582,
        0.9932567477226257
      ],
      "min": [
        -0.9999953508377075,
        -0.999204695224762,
        -0.9957891702651978
      ],
      "type": "VEC3"
    },
    {
      "bufferView": 1,
      "componentType": 5126,
      "count": 3128,
      "max": [
        0.9984999895095825,
        1.0
      ],
      "min": [
        0.0003000000142492354,
        0.000500023365020752
      ],
      "type": "VEC2"
    },
    {
      "bufferView": 0,
      "componentType": 5125,
      "count": 3684,
      "type": "SCALAR"
    },
    {
      "bufferView": 2,
      "byteOffset": 75072,
      "componentType": 5126,
      "count": 32026,
      "max": [
        50.09218215942383,
        21.76333999633789,
        82.07188415527344
      ],
      "min": [
        -50.08784866333008,
        -7.765353202819824,
        35.996280670166016
      ],
      "type": "VEC3"
    },
    {
      "bufferView": 2,
      "byteOffset": 459384,
      "componentType": 5126,
      "count": 32026,
      "max": [
        1.0,
        0.9997560977935791,
        0.9999865293502808
      ],
      "min": [
        -1.0,
        -0.999988317489624,
        -0.9999998211860657
      ],
      "type": "VEC3"
    },
    {
      "bufferView": 1,
      "byteOffset": 25024,
      "componentType": 5126,
      "count": 32026,
      "max": [
        0.9973000288009644,
        0.9965000152587891
      ],
      "min": [
        0.002099999925121665,
        0.0016000269679352641
      ],
      "type": "VEC2"
    },
    {
      "bufferView": 0,
      "byteOffset": 14736,
      "componentType": 5125,
      "count": 32634,
      "type": "SCALAR"
    },
    {
      "bufferView": 2,
      "byteOffset": 843696,
      "componentType": 5126,
      "count": 126,
      "max": [
        22.02794075012207,
        -4.512511730194092,
        48.61515808105469
      ],
      "min": [
        21.503211975097656,
        -21.16248893737793,
        25.350679397583008
      ],
      "type": "VEC3"
    },
    {
      "bufferView": 2,
      "byteOffset": 845208,
      "componentType": 5126,
      "count": 126,
      "max": [
        1.0,
        0.3490281105041504,
        0.23609678447246552
      ],
      "min": [
        -1.0,
        -0.3796389102935791,
        -0.3532920181751251
      ],
      "type": "VEC3"
    },
    {
      "bufferView": 3,
      "componentType": 5126,
      "count": 126,
      "max": [
        0.4213819205760956,
        -0.7511671781539917,
        0.560291588306427,
        1.0
      ],
      "min": [
        -0.421380877494812,
        -0.8282962441444397,
        0.5081153512001038,
        -1.0
      ],
      "type": "VEC4"
    },
    {
      "bufferView": 1,
      "byteOffset": 281232,
      "componentType": 5126,
      "count": 126,
      "max": [
        0.9995009303092957,
        0.9995009303092957
      ],
      "min": [
        0.0005000000237487257,
        0.0005000000237487257
      ],
      "type": "VEC2"
    },
    {
      "bufferView": 0,
      "byteOffset": 145272,
      "componentType": 5125,
      "count": 126,
      "type": "SCALAR"
    },
    {
      "bufferView": 2,
      "byteOffset": 846720,
      "componentType": 5126,
      "count": 1776,
      "max": [
        -13.997298240661621,
        6.991415023803711,
        61.544471740722656
      ],
      "min": [
        -26.98551368713379,
        -10.556838035583496,
        43.02348709106445
      ],
      "type": "VEC3"
    },
    {
      "bufferView": 2,
      "byteOffset": 868032,
      "componentType": 5126,
      "count": 1776,
      "max": [
        0.9851409792900085,
        0.9986222386360168,
        0.9873090982437134
      ],
      "min": [
        -0.987122654914856,
        -0.9960393309593201,
        -0.9909915328025818
      ],
      "type": "VEC3"
    },
    {
      "bufferView": 3,
      "byteOffset": 2016,
      "componentType": 5126,
      "count": 1776,
      "max": [
        0.9954885244369507,
        0.9481905698776245,
        0.9954871535301208,
        1.0
      ],
      "min": [
        -0.9961352348327637,
        -0.9926570057868958,
        -0.9947059750556946,
        -1.0
      ],
      "type": "VEC4"
    },
    {
      "bufferView": 1,
      "byteOffset": 282240,
      "componentType": 5126,
      "count": 1776,
      "max": [
        0.9846621155738831,
        0.9913915395736694
      ],
      "min": [
        0.007933281362056732,
        0.009855976328253746
      ],
      "type": "VEC2"
    },
    {
      "bufferView": 0,
      "byteOffset": 145776,
      "componentType": 5125,
      "count": 1776,
      "type": "SCALAR"
    },
    {
      "bufferView": 2,
      "byteOffset": 889344,
      "componentType": 5126,
      "count": 14890,
      "max": [
        23.312231063842773,
        9.337891578674316,
        81.17167663574219
      ],
      "min": [
        -21.772010803222656,
        -14.098642349243164,
        -0.6553187966346741
      ],
      "type": "VEC3"
    },
    {
      "bufferView": 2,
      "byteOffset": 1068024,
      "componentType": 5126,
      "count": 14890,
      "max": [
        1.0,
        0.9998965263366699,
        0.9995855689048767
      ],
      "min": [
        -1.0,
        -0.9999845623970032,
        -0.9997780919075012
      ],
      "type": "VEC3"
    },
    {
      "bufferView": 3,
      "byteOffset": 30432,
      "componentType": 5126,
      "count": 14890,
      "max": [
        0.9999992251396179,
        0.9999727606773376,
        0.999984622001648,
        1.0
      ],
      "min": [
        -0.9999992251396179,
        -0.9986424446105957,
        -0.9997654557228088,
        -1.0
      ],
      "type": "VEC4"
    },
    {
      "bufferView": 1,
      "byteOffset": 296448,
      "componentType": 5126,
      "count": 14890,
      "max": [
        0.9991724491119385,
        0.9991724491119385
      ],
      "min": [
        0.00024178624153137207,
        0.0021947298664599657
      ],
      "type": "VEC2"
    },
    {
      "bufferView": 0,
      "byteOffset": 152880,
      "componentType": 5125,
      "count": 14967,
      "type": "SCALAR"
    },
    {
      "bufferView": 2,
      "byteOffset": 1246704,
      "componentType": 5126,
      "count": 1581,
      "max": [
        2.7083351612091064,
        7.250054359436035,
        63.91056823730469
      ],
      "min": [
        -23.31173324584961,
        -14.099264144897461,
        37.828617095947266
      ],
      "type": "VEC3"
    },
    {
      "bufferView": 2,
      "byteOffset": 1265676,
      "componentType": 5126,
      "count": 1581,
      "max": [
        0.9983176589012146,
        0.9956865906715393,
        0.9299547672271729
      ],
      "min": [
        -0.9997934699058533,
        -0.9990338087081909,
        -0.9918225407600403
      ],
      "type": "VEC3"
    },
    {
      "bufferView": 3,
      "byteOffset": 268672,
      "componentType": 5126,
      "count": 1581,
      "max": [
        0.9992110729217529,
        0.9879570007324219,
        0.9994224905967712,
        1.0
      ],
      "min": [
        -0.9979308247566223,
        -0.9951456785202026,
        -0.9814983606338501,
        -1.0
      ],
      "type": "VEC4"
    },
    {
      "bufferView": 1,
      "byteOffset": 415568,
      "componentType": 5126,
      "count": 1581,
      "max": [
        0.9991724491119385,
        0.9938751459121704
      ],
      "min": [
        0.19939464330673218,
        0.6283633708953857
      ],
      "type": "VEC2"
    },
    {
      "bufferView": 0,
      "byteOffset": 212748,
      "componentType": 5125,
      "count": 1581,
      "type": "SCALAR"
    }
  ],
  "asset": {
    "extras": {
      "author": "savounited (https://sketchfab.com/savounited)",
      "license": "CC-BY-4.0 (http://creativecommons.org/licenses/by/4.0/)",
      "source": "https://sketchfab.com/3d-models/upgraded-gipsy-danger-bd0017798478466e9772b7b66bce82fd",
      "title": "Upgraded Gipsy Danger"
    },
    "generator": "Sketchfab-16.12.0",
    "version": "2.0"
  },
  "bufferViews": [
    {
      "buffer": 0,
      "byteLength": 219072,
      "name": "floatBufferViews",
      "target": 34963
    },
    {
      "buffer": 0,
      "byteLength": 428216,
      "byteOffset": 219072,
      "byteStride": 8,
      "name": "floatBufferViews",
      "target": 34962
    },
    {
      "buffer": 0,
      "byteLength": 1284648,
      "byteOffset": 647288,
      "byteStride": 12,
      "name": "floatBufferViews",
      "target": 34962
    },
    {
      "buffer": 0,
      "byteLength": 293968,
      "byteOffset": 1931936,
      "byteStride": 16,
      "name": "floatBufferViews",
      "target": 34962
    }
  ],
  "buffers": [
    {
      "byteLength": 2225904,
      "uri": "scene.bin"
    }
  ],
  "extensionsUsed": [
    "KHR_materials_specular",
    "KHR_materials_clearcoat"
  ],
  "images": [
    {
      "uri": "textures/m_53bb41d0-eef4-9461-546f-60c41158a105_baseColor.png"
    },
    {
      "uri": "textures/m_53bb41d0-eef4-9461-546f-60c41158a105_normal.png"
    },
    {
      "uri": "textures/m_53bb41d0-eef4-9461-546f-60c41158a105_specularf0.png"
    },
    {
      "uri": "textures/m_9aa17d9a-4dca-026b-50d0-b82277c17d04_baseColor.png"
    },
    {
      "uri": "textures/m_9ee6ff24-c220-d833-2543-66721652fdb7_baseColor.png"
    },
    {
      "uri": "textures/m_9ee6ff24-c220-d833-2543-66721652fdb7_clearcoat_normal.png"
    },
    {
      "uri": "textures/m_d51cd4fb-0523-ac45-ccee-f14be4611dfa_baseColor.png"
    },
    {
      "uri": "textures/m_d51cd4fb-0523-ac45-ccee-f14be4611dfa_normal.png"
    },
    {
      "uri": "textures/m_d51cd4fb-0523-ac45-ccee-f14be4611dfa_specularf0.png"
    },
    {
      "uri": "textures/m_feb4edf5-d1b2-ae6b-090f-17104a564ef5_baseColor.png"
    },
    {
      "uri": "textures/m_feb4edf5-d1b2-ae6b-090f-17104a564ef5_normal.png"
    },
    {
      "uri": "textures/m_feb4edf5-d1b2-ae6b-090f-17104a564ef5_specularf0.png"
    }
  ],
  "materials": [
    {
      "doubleSided": true,
      "extensions": {
        "KHR_materials_specular": {
          "specularColorFactor": [
            1.0,
            1.0,
            1.0
          ],
          "specularFactor": 1.0,
          "specularTexture": {
            "index": 2
          }
        }
      },
      "name": "m_53bb41d0-eef4-9461-546f-60c41158a105",
      "normalTexture": {
        "index": 1
      },
      "pbrMetallicRoughness": {
        "baseColorTexture": {
          "index": 0
        },
        "metallicFactor": 0.0
      }
    },
    {
      "doubleSided": true,
      "extensions": {
        "KHR_materials_clearcoat": {
          "clearcoatFactor": 1.0,
          "clearcoatRoughnessFactor": 0.1
        }
      },
      "name": "m_9aa17d9a-4dca-026b-50d0-b82277c17d04",
      "pbrMetallicRoughness": {
        "baseColorTexture": {
          "index": 3
        },
        "metallicFactor": 0.0
      }
    },
    {
      "doubleSided": true,
      "extensions": {
        "KHR_materials_clearcoat": {
          "clearcoatFactor": 1.0,
          "clearcoatNormalTexture": {
            "index": 5
          },
          "clearcoatRoughnessFactor": 0.04
        }
      },
      "name": "m_9ee6ff24-c220-d833-2543-66721652fdb7",
      "pbrMetallicRoughness": {
        "baseColorTexture": {
          "index": 4
        },
        "metallicFactor": 0.0
      }
    },
    {
      "doubleSided": true,
      "extensions": {
        "KHR_materials_specular": {
          "specularColorFactor": [
            1.0,
            1.0,
            1.0
          ],
          "specularFactor": 1.0,
          "specularTexture": {
            "index": 8
          }
        }
      },
      "name": "m_d51cd4fb-0523-ac45-ccee-f14be4611dfa",
      "normalTexture": {
        "index": 7
      },
      "pbrMetallicRoughness": {
        "baseColorTexture": {
          "index": 6
        }
      }
    },
    {
      "doubleSided": true,
      "extensions": {
        "KHR_materials_specular": {
          "specularColorFactor": [
            1.0,
            1.0,
            1.0
          ],
          "specularFactor": 1.0,
          "specularTexture": {
            "index": 11
          }
        }
      },
      "name": "m_feb4edf5-d1b2-ae6b-090f-17104a564ef5",
      "normalTexture": {
        "index": 10
      },
      "pbrMetallicRoughness": {
        "baseColorTexture": {
          "index": 9
        },
        "metallicFactor": 0.0
      }
    }
  ],
  "meshes": [
    {
      "name": "Object_0",
      "primitives": [
        {
          "attributes": {
            "NORMAL": 1,
            "POSITION": 0,
            "TEXCOORD_0": 2
          },
          "indices": 3,
          "material": 1,
          "mode": 4
        }
      ]
    },
    {
      "name": "Object_1",
      "primitives": [
        {
          "attributes": {
            "NORMAL": 5,
            "POSITION": 4,
            "TEXCOORD_0": 6
          },
          "indices": 7,
          "material": 2,
          "mode": 4
        }
      ]
    },
    {
      "name": "Object_2",
      "primitives": [
        {
          "attributes": {
            "NORMAL": 9,
            "POSITION": 8,
            "TANGENT": 10,
            "TEXCOORD_0": 11
          },
          "indices": 12,
          "material": 3,
          "mode": 4
        }
      ]
    },
    {
      "name": "Object_3",
      "primitives": [
        {
          "attributes": {
            "NORMAL": 14,
            "POSITION": 13,
            "TANGENT": 15,
            "TEXCOORD_0": 16
          },
          "indices": 17,
          "material": 4,
          "mode": 4
        }
      ]
    },
    {
      "name": "Object_4",
      "primitives": [
        {
          "attributes": {
            "NORMAL": 19,
            "POSITION": 18,
            "TANGENT": 20,
            "TEXCOORD_0": 21
          },
          "indices": 22,
          "material": 0,
          "mode": 4
        }
      ]
    },
    {
      "name": "Object_5",
      "primitives": [
        {
          "attributes": {
            "NORMAL": 24,
            "POSITION": 23,
            "TANGENT": 25,
            "TEXCOORD_0": 26
          },
          "indices": 27,
          "material": 0,
          "mode": 4
        }
      ]
    }
  ],
  "nodes": [
    {
      "children": [
        1
      ],
      "matrix": [
        1.0,
        0.0,
        0.0,
        0.0,
        0.0,
        2.220446049250313e-16,
        -1.0,
        0.0,
        0.0,
        1.0,
        2.220446049250313e-16,
        0.0,
        0.0,
        0.0,
        0.0,
        1.0
      ],
      "name": "Sketchfab_model"
    },
    {
      "children": [
        2,
        3,
        4,
        5,
        6,
        7
      ],
      "name": "Upgraded Gipsy Danger.obj.cleaner.materialmerger.gles"
    },
    {
      "mesh": 0,
      "name": "Object_2"
    },
    {
      "mesh": 1,
      "name": "Object_3"
    },
    {
      "mesh": 2,
      "name": "Object_4"
    },
    {
      "mesh": 3,
      "name": "Object_5"
    },
    {
      "mesh": 4,
      "name": "Object_6"
    },
    {
      "mesh": 5,
      "name": "Object_7"
    }
  ],
  "samplers": [
    {
      "magFilter": 9729,
      "minFilter": 9987,
      "wrapS": 10497,
      "wrapT": 10497
    }
  ],
  "scene": 0,
  "scenes": [
    {
      "name": "Sketchfab_Scene",
      "nodes": [
        0
      ]
    }
  ],
  "textures": [
    {
      "sampler": 0,
      "source": 0
    },
    {
      "sampler": 0,
      "source": 1
    },
    {
      "sampler": 0,
      "source": 2
    },
    {
      "sampler": 0,
      "source": 3
    },
    {
      "sampler": 0,
      "source": 4
    },
    {
      "sampler": 0,
      "source": 5
    },
    {
      "sampler": 0,
      "source": 6
    },
    {
      "sampler": 0,
      "source": 7
    },
    {
      "sampler": 0,
      "source": 8
    },
    {
      "sampler": 0,
      "source": 9
    },
    {
      "sampler": 0,
      "source": 10
    },
    {
      "sampler": 0,
      "source": 11
    }
  ]
}
